# xmcd
#
# Track frame offsets: 
#        150
#        2535
#        6412
#        14834
#        19564
#        23996
#        28388
#        31932
#        37595
#        41651
#        47520
#        54740
#        60757
#        65686
#        68609
#        71006
#        74987
#        77327
#        81157
#        84358
#        88132
#        93361
#        94788
#        99195
#        104061
#        110372
#        115816
#        122563
#        125631
#        135598
#        141113
#        145138
#        150632
#        154754
#        158100
#        159660
#
# Disc length: 2177 seconds
#
# Revision: 2
# Processed by: cddbd v1.5.2PL0 Copyright (c) Steve Scherf et al.
# Submitted via: ExactAudioCopy v1.0b3
#
DISCID=da087f24
DTITLE=Matsuoka Phonics Institute - Songs and Chants - MPI Best Selectio
DTITLE=n
DYEAR=2000
DGENRE=
TTITLE0=Hello Song
TTITLE1=Hello, Hello, Whats Your Name?
TTITLE2=Weather Song
TTITLE3=Rainbow
TTITLE4=Who Is Wearing Green? (Chant)
TTITLE5=Open Shut Them
TTITLE6=My Eyes, My Ears
TTITLE7=Head, Shoulders
TTITLE8=One Little Finger
TTITLE9=Make a Circle
TTITLE10=The Hokey Pokey
TTITLE11=I Have a Joy
TTITLE12=Deep and Wide
TTITLE13=The Days of the Week
TTITLE14=The Months of the Year
TTITLE15=Jelly in a Bowl (Chant)
TTITLE16=Coconut Song
TTITLE17=Ten Fat Sausages (Chant)
TTITLE18=Seven Steps
TTITLE19=Ten Little Snowmen
TTITLE20=Hickory Dickory Dock
TTITLE21=Eenie, Meenie, Minie, Moe (Chant)
TTITLE22=Old MacDonald Had a Farm
TTITLE23=Hop, Hop
TTITLE24=Shark Attack (Chant)
TTITLE25=Bingo
TTITLE26=Five Little Monkeys (Chant)
TTITLE27=The Alphabet Song
TTITLE28=Phonics Alphabet Song
TTITLE29=Let's Go Trick-or-Treating
TTITLE30=Halloween
TTITLE31=We Wish You a Merry Christmas
TTITLE32=The Little Bells of Christmas
TTITLE33=Good-bye
TTITLE34=Good-Bye, Good-bye
TTITLE35=So Nice of You to Come
EXTD=
EXTT0=
EXTT1=
EXTT2=
EXTT3=
EXTT4=
EXTT5=
EXTT6=
EXTT7=
EXTT8=
EXTT9=
EXTT10=
EXTT11=
EXTT12=
EXTT13=
EXTT14=
EXTT15=
EXTT16=
EXTT17=
EXTT18=
EXTT19=
EXTT20=
EXTT21=
EXTT22=
EXTT23=
EXTT24=
EXTT25=
EXTT26=
EXTT27=
EXTT28=
EXTT29=
EXTT30=
EXTT31=
EXTT32=
EXTT33=
EXTT34=
EXTT35=
PLAYORDER=
